<?xml version="1.0" encoding="UTF-8" standalone="no"?>
<svg
   xmlns:dc="http://purl.org/dc/elements/1.1/"
   xmlns:cc="http://creativecommons.org/ns#"
   xmlns:rdf="http://www.w3.org/1999/02/22-rdf-syntax-ns#"
   xmlns:svg="http://www.w3.org/2000/svg"
   xmlns="http://www.w3.org/2000/svg"
   xmlns:sodipodi="http://sodipodi.sourceforge.net/DTD/sodipodi-0.dtd"
   xmlns:inkscape="http://www.inkscape.org/namespaces/inkscape"
   width="16.103178cm"
   height="21.760035cm"
   viewBox="0 0 805.1589 1088.0017"
   version="1.1"
   id="svg3355"
   inkscape:version="0.91 r13725"
   sodipodi:docname="svgtest.svg">
  <metadata
     id="metadata3363">
    <rdf:RDF>
      <cc:Work
         rdf:about="">
        <dc:format>image/svg+xml</dc:format>
        <dc:type
           rdf:resource="http://purl.org/dc/dcmitype/StillImage" />
        <dc:title></dc:title>
      </cc:Work>
    </rdf:RDF>
  </metadata>
  <defs
     id="defs3361" />
  <sodipodi:namedview
     pagecolor="#ffffff"
     bordercolor="#666666"
     borderopacity="1"
     objecttolerance="10"
     gridtolerance="10"
     guidetolerance="10"
     inkscape:pageopacity="0"
     inkscape:pageshadow="2"
     inkscape:window-width="1366"
     inkscape:window-height="743"
     id="namedview3359"
     showgrid="false"
     fit-margin-top="0"
     fit-margin-left="0"
     fit-margin-right="0"
     fit-margin-bottom="0"
     inkscape:zoom="0.70710678"
     inkscape:cx="385.98005"
     inkscape:cy="370.20832"
     inkscape:window-x="0"
     inkscape:window-y="25"
     inkscape:window-maximized="1"
     inkscape:current-layer="svg3355" />
  <path
     d="M 119.73674,968.26493 685.42214,402.57946 402.57946,119.73675 119.73674,402.57946 685.42214,968.26493"
     id="path3357"
     style="fill-opacity:0;stroke:#000000;stroke-width:169.33332825;stroke-linecap:square;stroke-miterlimit:4;stroke-dasharray:none"
     inkscape:connector-curvature="0" />
  <g
     transform="matrix(0.70710678,-0.70710678,0.70710678,0.70710678,0,0)"
     style="font-style:normal;font-variant:normal;font-weight:600;font-stretch:normal;font-size:124.98096466px;line-height:125%;font-family:'URW Gothic L';-inkscape-font-specification:'URW Gothic L, Semi-Bold';text-align:start;letter-spacing:-6.2490406px;word-spacing:0px;writing-mode:lr-tb;text-anchor:start;fill:#ffffff;fill-opacity:1;stroke:none;stroke-width:1px;stroke-linecap:butt;stroke-linejoin:miter;stroke-opacity:1"
     id="text4190">
    <path
       d="m -591.9828,739.2493 -16.62247,0 0,29.24554 c -4.87425,-5.37418 -12.87304,-8.62368 -21.6217,-8.62368 -19.37205,0 -34.61973,16.24752 -34.61973,36.99436 0,20.49688 15.1227,36.36946 34.74471,36.36946 9.37357,0 16.24752,-3.12452 22.87151,-10.62338 l 0,8.99863 15.24768,0 0,-92.36093 z m -35.86954,35.86953 c 11.62323,0 20.49688,9.37358 20.49688,21.49673 0,11.99817 -8.87365,21.37174 -20.12193,21.37174 -11.62323,0 -20.62186,-9.62353 -20.62186,-21.87166 0,-11.74822 8.87365,-20.99681 20.24691,-20.99681 z"
       style=""
       id="path4212" />
    <path
       d="m -585.58923,831.61023 16.62247,0 0,-38.49414 c 0,-10.74836 4.87425,-16.12254 14.87273,-16.3725 l 0,-15.99757 -1.24981,0 c -7.12391,0 -10.62338,1.9997 -14.99771,8.37373 l 0,-6.74897 -15.24768,0 0,69.23945 z"
       style=""
       id="path4214" />
    <path
       d="m -481.69098,762.37078 -15.24768,0 0,9.24859 c -5.74912,-7.62384 -12.62308,-10.87335 -22.62155,-10.87335 -20.49688,0 -35.24464,15.37266 -35.24464,36.49444 0,20.87183 14.62278,35.99452 34.86969,35.99452 9.74852,0 16.37251,-3.12452 22.9965,-10.62338 l 0,8.99863 15.24768,0 0,-69.23945 z m -36.1195,13.62292 c 11.87319,0 20.3719,8.87365 20.3719,21.49673 0,4.99923 -1.9997,10.74836 -4.99924,14.24783 -3.37449,3.99939 -8.74867,6.24904 -15.1227,6.24904 -12.12315,0 -20.49688,-8.24874 -20.49688,-20.37189 0,-12.62308 8.37373,-21.62171 20.24692,-21.62171 z"
       style=""
       id="path4216" />
    <path
       d="m -413.93177,762.37078 -16.62247,0 0,32.62003 c 0,9.12361 -0.6249,13.62292 -2.6246,16.62247 -2.37464,3.99939 -6.99893,6.37402 -12.62307,6.37402 -4.24936,0 -7.49886,-1.37479 -9.74852,-4.37433 -2.37464,-2.99954 -3.37449,-8.12376 -3.37449,-17.37235 l 0,-33.86984 -16.62246,0 0,37.11934 c 0,11.74821 1.37479,17.7473 5.2492,23.49642 4.62429,6.62399 12.12315,10.24844 21.12178,10.24844 8.37372,0 13.62292,-2.12467 19.87197,-8.24874 l 0,6.62399 15.37266,0 0,-69.23945 z"
       style=""
       id="path4218" />
    <path
       d="m -406.85666,854.73171 16.62246,0 0,-29.62049 c 6.24905,5.62414 12.74806,8.12376 21.24677,8.12376 19.99695,0 34.61972,-15.49764 34.61972,-36.49444 0,-20.87182 -14.49779,-35.99452 -34.49474,-35.99452 -9.37357,0 -17.37236,3.49947 -22.74654,9.74852 l 0,-8.12376 -15.24767,0 0,92.36093 z m 35.86953,-78.73801 c 11.24829,0 19.87198,9.12361 19.87198,21.12178 0,11.74821 -8.62369,20.87182 -19.62202,20.87182 -11.74821,0 -20.49687,-8.99863 -20.49687,-21.12178 0,-11.87319 8.74866,-20.87182 20.24691,-20.87182 z"
       style=""
       id="path4220" />
    <path
       d="m -330.59875,831.61023 16.62247,0 0,-32.62003 c 0,-9.24859 0.62491,-13.24798 2.74958,-16.62247 2.6246,-4.12437 6.99894,-6.37403 12.24814,-6.37403 4.24935,0 7.74882,1.49977 9.99848,4.37433 2.24965,2.99955 3.2495,8.12377 3.2495,17.37236 l 0,33.86984 16.62247,0 0,-37.11935 c 0,-12.37311 -1.24981,-18.3722 -4.99924,-23.74638 -4.49931,-6.49901 -11.99817,-9.99848 -21.62171,-9.99848 -7.8738,0 -13.37296,2.37464 -19.49703,8.24875 l 0,-6.62399 -15.37266,0 0,69.23945 z"
       style=""
       id="path4222" />
    <path
       d="m -261.90801,831.61023 16.62247,0 0,-69.23945 -16.62247,0 0,69.23945 z m 0,-76.73831 16.62247,0 0,-15.62262 -16.62247,0 0,15.62262 z"
       style=""
       id="path4224" />
    <path
       d="m -238.13235,831.61023 16.62247,0 0,-38.49414 c 0,-10.74836 4.87426,-16.12254 14.87274,-16.3725 l 0,-15.99757 -1.24981,0 c -7.12392,0 -10.62338,1.9997 -14.99772,8.37373 l 0,-6.74897 -15.24768,0 0,69.23945 z"
       style=""
       id="path4226" />
  </g>
</svg>
