<svg xmlns:svg="http://www.w3.org/2000/svg" xmlns="http://www.w3.org/2000/svg" version="1.1" viewBox="0 0 805.159 1088.002" height="21.76" width="16.103"><path d="M402.579 0-0.001 402.58 282.844 685.422 59.87 908.397-0.001 968.264 119.737 1088.002l59.868-59.87 145.039-145.039-61.968-61.97 10.782-10.782 5.744 5.744c-0.619-8.219 2.563-16.349 9.191-22.977 14.14-14.14 35.085-13.697 49.844 1.061 14.847 14.847 15.466 36.145 1.326 50.285-6.009 6.01-12.371 8.838-20.767 9.28l17.603 17.606 66.182-66.182 222.975 222.975 59.868 59.87 119.738-119.738-59.867-59.867-222.975-222.975 282.842-282.842-402.58-402.58zm0 239.473 163.107 163.107-163.107 163.105-163.105-163.105 163.105-163.107zm0.524 438.924 11.314 11.314c-6.893 7.247-6.542 14.492 1.058 22.093l27.219 27.219-11.752 11.755-48.962-48.959 10.782-10.782 4.774 4.771c-1.414-7.6-0.355-11.488 4.683-16.525l0.885-0.885zm-42.529 12.129 11.046 11.046-11.752 11.755-11.049-11.046 11.755-11.755zm16.349 16.349 48.962 48.959-11.755 11.755-48.959-48.959 11.752-11.755zm-18.827 25.951c1.452-0.031 2.91 0.085 4.368 0.35 6.452 1.149 11.577 4.508 20.326 13.257l26.249 26.246-11.755 11.755-23.95-23.95c-6.54-6.54-10.871-9.455-14.582-9.985-3.623-0.442-7.157 0.972-10.162 3.977-3.712 3.712-5.214 8.396-4.153 13.169 0.884 3.888 3.269 7.158 9.809 13.698l23.066 23.066-11.755 11.752-48.959-48.959 10.87-10.87 4.686 4.685c0.177-8.484 2.384-14.053 7.951-19.621 5.529-5.529 11.701-8.433 17.992-8.569zm-46.128 66.843c-5.192-0.155-10.319 1.745-14.296 5.722-8.131 8.131-7.955 20.681 0.441 29.077 8.572 8.572 21.122 8.748 29.43 0.441 7.777-7.777 7.425-20.326-0.882-28.633-4.242-4.242-9.501-6.452-14.693-6.606zm-54.295 26.456 48.959 48.962-10.87 10.87-4.683-4.685c-0.088 8.749-2.297 13.964-8.219 19.885-6.363 6.363-14.23 9.103-22.184 7.689-6.805-1.326-12.019-4.597-20.326-12.904l-26.246-26.246 11.752-11.755 23.95 23.95c6.54 6.54 10.871 9.455 14.671 9.897 3.712 0.53 6.981-0.796 9.985-3.801 3.977-3.977 5.57-8.926 4.421-13.433-0.707-3.535-3.449-7.158-9.9-13.609l-23.066-23.066 11.755-11.755zm-47.914 47.914 48.962 48.959-10.782 10.782-6.364-6.364c0.619 9.986-1.857 16.881-8.751 23.774-14.317 14.317-35.35 13.962-50.108-0.796-14.935-14.935-15.375-36.232-0.882-50.726 7.07-7.07 14.227-9.632 23.683-8.307l-6.54-6.54 10.782-10.782zm-1.304 29.074c-5.236-0.133-10.404 1.901-14.602 6.099-8.396 8.396-7.956 20.68 0.97 29.606 8.573 8.572 20.328 8.484 28.9-0.088 4.507-4.507 6.715-9.897 6.273-15.112-0.353-4.595-3.002-10.077-6.537-13.612-4.463-4.463-9.768-6.76-15.004-6.893zm-51.04 20.974 11.311 11.311c-6.893 7.247-6.539 14.495 1.061 22.095l27.219 27.219-11.755 11.755-48.959-48.962 10.782-10.782 4.771 4.774c-1.414-7.6-0.352-11.488 4.685-16.525l0.885-0.885zm-41.994 11.592 65.311 65.308-10.782 10.782-6.364-6.364c0.619 9.986-2.031 17.058-8.66 23.686-13.875 13.875-35.791 13.344-50.285-1.149-14.67-14.67-15.379-36.942-1.681-50.64 6.186-6.186 14.141-9.542 21.387-9.189l-20.679-20.682 11.752-11.752zm14.715 44.784c-5.325-0.133-10.605 1.833-14.715 5.942-8.042 8.042-7.775 20.858 0.532 29.165 8.661 8.661 21.828 9.101 30.047 0.882 7.954-7.954 7.602-20.854-0.882-29.338-4.286-4.286-9.657-6.518-14.982-6.65z"/></svg>
