<?xml version="1.0" encoding="UTF-8" standalone="no"?>
<svg xmlns:svg="http://www.w3.org/2000/svg" xmlns="http://www.w3.org/2000/svg" width="115.349" height="140.782" viewBox="0 0 408.717 498.833" id="svg15444" version="1.1"><style>.s0{overflow:visible;}.s1{fill:#000;stroke-width:1;stroke:#000;}.s2{baseline-shift:baseline;block-progression:tb;color-interpolation-filters:linearRGB;color-interpolation:sRGB;color-rendering:auto;direction:ltr;fill:#000;font-family:sans-serif;font-size:medium;image-rendering:auto;isolation:auto;letter-spacing:normal;line-height:normal;mix-blend-mode:normal;overflow:visible;shape-rendering:auto;solid-color:#000000;solid-opacity:1;text-align:start;text-anchor:start;text-decoration-color:#000000;text-decoration-line:none;text-decoration-style:solid;text-decoration:none;text-indent:0;text-rendering:auto;text-transform:none;white-space:normal;word-spacing:normal;writing-mode:lr-tb;}.s3{baseline-shift:baseline;block-progression:tb;color-interpolation-filters:linearRGB;color-interpolation:sRGB;color-rendering:auto;direction:ltr;fill:#dc9414;font-family:sans-serif;font-size:medium;image-rendering:auto;isolation:auto;letter-spacing:normal;line-height:normal;mix-blend-mode:normal;overflow:visible;shape-rendering:auto;solid-color:#000000;solid-opacity:1;text-align:start;text-anchor:start;text-decoration-color:#000000;text-decoration-line:none;text-decoration-style:solid;text-decoration:none;text-indent:0;text-rendering:auto;text-transform:none;white-space:normal;word-spacing:normal;writing-mode:lr-tb;}.s4{baseline-shift:baseline;block-progression:tb;color-interpolation-filters:linearRGB;color-interpolation:sRGB;color-rendering:auto;direction:ltr;fill:#54b0f8;font-family:sans-serif;font-size:medium;image-rendering:auto;isolation:auto;letter-spacing:normal;line-height:normal;mix-blend-mode:normal;overflow:visible;shape-rendering:auto;solid-color:#000000;solid-opacity:1;text-align:start;text-anchor:start;text-decoration-color:#000000;text-decoration-line:none;text-decoration-style:solid;text-decoration:none;text-indent:0;text-rendering:auto;text-transform:none;white-space:normal;word-spacing:normal;writing-mode:lr-tb;}</style><defs id="defs15446"><marker id="marker14066" refX="0" refY="0" orient="auto" overflow="visible"><path transform="matrix(0.2,0,0,0.2,1.48,0.2)" d="m-2.5-1c0 2.76-2.24 5-5 5-2.76 0-5-2.24-5-5 0-2.76 2.24-5 5-5 2.76 0 5 2.24 5 5z" id="path14068" class="s1"/></marker><marker id="marker14070" refX="0" refY="0" orient="auto" overflow="visible"><path transform="matrix(-0.2,0,0,-0.2,-1.2,0)" d="M0 0 5-5-12.5 0 5 5 0 0Z" id="path14072" class="s1"/></marker><marker orient="auto" refY="0" refX="0" id="marker14026" overflow="visible"><path id="path14028" d="m-2.5-1c0 2.76-2.24 5-5 5-2.76 0-5-2.24-5-5 0-2.76 2.24-5 5-5 2.76 0 5 2.24 5 5z" transform="matrix(0.2,0,0,0.2,1.48,0.2)" class="s1"/></marker><marker orient="auto" refY="0" refX="0" id="marker14030" overflow="visible"><path id="path14032" d="M0 0 5-5-12.5 0 5 5 0 0Z" transform="matrix(-0.2,0,0,-0.2,-1.2,0)" class="s1"/></marker><marker id="marker14014" refX="0" refY="0" orient="auto" overflow="visible"><path transform="matrix(0.2,0,0,0.2,1.48,0.2)" d="m-2.5-1c0 2.76-2.24 5-5 5-2.76 0-5-2.24-5-5 0-2.76 2.24-5 5-5 2.76 0 5 2.24 5 5z" id="path14016" class="s1"/></marker><marker id="marker14022" refX="0" refY="0" orient="auto" overflow="visible"><path transform="matrix(-0.2,0,0,-0.2,-1.2,0)" d="M0 0 5-5-12.5 0 5 5 0 0Z" id="path14024" class="s1"/></marker><marker id="marker14042" refX="0" refY="0" orient="auto" overflow="visible"><path transform="matrix(0.2,0,0,0.2,1.48,0.2)" d="m-2.5-1c0 2.76-2.24 5-5 5-2.76 0-5-2.24-5-5 0-2.76 2.24-5 5-5 2.76 0 5 2.24 5 5z" id="path14044" class="s1"/></marker><marker id="marker14046" refX="0" refY="0" orient="auto" overflow="visible"><path transform="matrix(-0.2,0,0,-0.2,-1.2,0)" d="M0 0 5-5-12.5 0 5 5 0 0Z" id="path14048" class="s1"/></marker><marker id="marker14058" refX="0" refY="0" orient="auto" overflow="visible"><path transform="matrix(0.2,0,0,0.2,1.48,0.2)" d="m-2.5-1c0 2.76-2.24 5-5 5-2.76 0-5-2.24-5-5 0-2.76 2.24-5 5-5 2.76 0 5 2.24 5 5z" id="path14060" class="s1"/></marker><marker id="marker14062" refX="0" refY="0" orient="auto" overflow="visible"><path transform="matrix(-0.2,0,0,-0.2,-1.2,0)" d="M0 0 5-5-12.5 0 5 5 0 0Z" id="path14064" class="s1"/></marker><marker id="marker14034" refX="0" refY="0" orient="auto" overflow="visible"><path transform="matrix(0.2,0,0,0.2,1.48,0.2)" d="m-2.5-1c0 2.76-2.24 5-5 5-2.76 0-5-2.24-5-5 0-2.76 2.24-5 5-5 2.76 0 5 2.24 5 5z" id="path14036" class="s1"/></marker><marker id="marker14038" refX="0" refY="0" orient="auto" overflow="visible"><path transform="matrix(-0.2,0,0,-0.2,-1.2,0)" d="M0 0 5-5-12.5 0 5 5 0 0Z" id="path14040" class="s1"/></marker><marker id="marker14050" refX="0" refY="0" orient="auto" overflow="visible"><path transform="matrix(0.2,0,0,0.2,1.48,0.2)" d="m-2.5-1c0 2.76-2.24 5-5 5-2.76 0-5-2.24-5-5 0-2.76 2.24-5 5-5 2.76 0 5 2.24 5 5z" id="path14052" class="s1"/></marker><marker id="marker14054" refX="0" refY="0" orient="auto" overflow="visible"><path transform="matrix(-0.2,0,0,-0.2,-1.2,0)" d="M0 0 5-5-12.5 0 5 5 0 0Z" id="path14056" class="s1"/></marker><marker id="marker13598" refX="0" refY="0" orient="auto" overflow="visible"><path transform="matrix(0.2,0,0,0.2,1.48,0.2)" d="m-2.5-1c0 2.76-2.24 5-5 5-2.76 0-5-2.24-5-5 0-2.76 2.24-5 5-5 2.76 0 5 2.24 5 5z" id="path13600" class="s1"/></marker><marker id="marker13602" refX="0" refY="0" orient="auto" overflow="visible"><path transform="matrix(-0.2,0,0,-0.2,-1.2,0)" d="M0 0 5-5-12.5 0 5 5 0 0Z" id="path13604" class="s1"/></marker></defs><metadata id="metadata15449"/><g id="layer1" transform="translate(-129.92733,-208.65982)"><g id="g17460"><g id="g17353"><path id="path13314" d="m169 290.8 0-1 0-1 0-39.07 0-1 0-1 2 0 39.072 0 2 0 39.072 0 2 0 39.07 0 2 0 39.072 0 2 0 39.07 0 2 0 39.072 0 2 0 39.07 0 2 0 39.072 0 1 0 1 0 0 2 0 40.07 0 1-1 0-327.572 0-2 0z" class="s2"/><path id="path13316" d="m171 288.8 39.072 0 0-39.07-39.072 0 0 39.07zM212.072 288.8l39.072 0 0-39.07-39.072 0 0 39.07M212.072 288.8l39.072 0 0-39.07-39.072 0 0 39.07" class="s3"/><path id="path13318" d="m212.072 288.8 39.072 0 0-39.07-39.072 0 0 39.07z" class="s3"/><path id="path13320" d="m253.144 288.8 39.07 0 0-39.07-39.07 0 0 39.07z" class="s3"/><path id="path13322" d="m294.214 288.8 39.072 0 0-39.07-39.072 0 0 39.07z" class="s3"/><path id="path13324" d="m335.287 288.8 39.07 0 0-39.07-39.07 0 0 39.07z" class="s3"/><path id="path13326" d="m376.357 288.8 39.072 0 0-39.07-39.072 0 0 39.07z" class="s3"/><path id="path13328" d="m417.429 288.8 39.07 0 0-39.07-39.07 0 0 39.07z" class="s3"/><path id="path13330" d="m458.5 288.8 39.072 0 0-39.07-39.072 0 0 39.07z" class="s3"/></g><g id="g17364"><path id="path13340" d="m169 627.353 0-1 0-1 0-39.07 0-1 0-1 2 0 39.072 0 2 0 39.072 0 2 0 39.07 0 2 0 39.072 0 2 0 39.07 0 2 0 39.072 0 2 0 39.07 0 2 0 39.072 0 1 0 1 0 0 2 0 40.07 0 1-1 0-327.572 0-2 0zM169 668.423l0-1 0-1 0-39.07 0-1 0-1 2 0 39.072 0 2 0 39.072 0 2 0 39.07 0 2 0 39.072 0 2 0 39.07 0 2 0 39.072 0 2 0 39.07 0 2 0 39.072 0 1 0 1 0 0 2 0 40.07 0 1-1 0-327.572 0-2 0M169 668.423l0-1 0-1 0-39.07 0-1 0-1 2 0 39.072 0 2 0 39.072 0 2 0 39.07 0 2 0 39.072 0 2 0 39.07 0 2 0 39.072 0 2 0 39.07 0 2 0 39.072 0 1 0 1 0 0 2 0 40.07 0 1-1 0-327.572 0-2 0" class="s2"/><path d="m169 668.423 0-1 0-1 0-39.07 0-1 0-1 2 0 39.072 0 2 0 39.072 0 2 0 39.07 0 2 0 39.072 0 2 0 39.07 0 2 0 39.072 0 2 0 39.07 0 2 0 39.072 0 1 0 1 0 0 2 0 40.07 0 1-1 0-327.572 0-2 0z" id="path13342" class="s2"/><path d="m169 545.212 0-1 0-1 0-39.07 0-1 0-1 2 0 39.072 0 2 0 39.072 0 2 0 39.07 0 2 0 39.072 0 2 0 39.07 0 2 0 39.072 0 2 0 39.07 0 2 0 39.072 0 1 0 1 0 0 2 0 40.07 0 1-1 0-327.572 0-2 0z" id="path13344" class="s2"/><path id="path13346" d="m169 586.282 0-1 0-1 0-39.07 0-1 0-1 2 0 39.072 0 2 0 39.072 0 2 0 39.07 0 2 0 39.072 0 2 0 39.07 0 2 0 39.072 0 2 0 39.07 0 2 0 39.072 0 1 0 1 0 0 2 0 40.07 0 1-1 0-327.572 0-2 0z" class="s2"/><path d="m169 463.071 0-1 0-1 0-39.07 0-1 0-1 2 0 39.072 0 2 0 39.072 0 2 0 39.07 0 2 0 39.072 0 2 0 39.07 0 2 0 39.072 0 2 0 39.07 0 2 0 39.072 0 1 0 1 0 0 2 0 40.07 0 1-1 0-327.572 0-2 0z" id="path13348" class="s2"/><path id="path13350" d="m169 504.142 0-1 0-1 0-39.07 0-1 0-1 2 0 39.072 0 2 0 39.072 0 2 0 39.07 0 2 0 39.072 0 2 0 39.07 0 2 0 39.072 0 2 0 39.07 0 2 0 39.072 0 1 0 1 0 0 2 0 40.07 0 1-1 0-327.572 0-2 0z" class="s2"/><path id="path13352" d="m169 380.931 0-1 0-1 0-39.07 0-1 0-1 2 0 39.072 0 2 0 39.072 0 2 0 39.07 0 2 0 39.072 0 2 0 39.07 0 2 0 39.072 0 2 0 39.07 0 2 0 39.072 0 1 0 1 0 0 2 0 40.07 0 1-1 0-327.572 0-2 0z" class="s2"/><path d="m169 422.001 0-1 0-1 0-39.07 0-1 0-1 2 0 39.072 0 2 0 39.072 0 2 0 39.07 0 2 0 39.072 0 2 0 39.07 0 2 0 39.072 0 2 0 39.07 0 2 0 39.072 0 1 0 1 0 0 2 0 40.07 0 1-1 0-327.572 0-2 0z" id="path13354" class="s2"/><path id="path13356" d="m171 625.353 39.072 0 0-39.07-39.072 0 0 39.07z" class="s4"/><path id="path13358" d="m212.072 625.353 39.072 0 0-39.07-39.072 0 0 39.07z" class="s3"/><path id="path13360" d="m253.144 625.353 39.07 0 0-39.07-39.07 0 0 39.07zM294.214 625.353l39.072 0 0-39.07-39.072 0 0 39.07M294.214 625.353l39.072 0 0-39.07-39.072 0 0 39.07" class="s4"/><path id="path13362" d="m294.214 625.353 39.072 0 0-39.07-39.072 0 0 39.07z" class="s4"/><path id="path13364" d="m335.287 625.353 39.07 0 0-39.07-39.07 0 0 39.07z" class="s4"/><path id="path13366" d="m376.357 625.353 39.072 0 0-39.07-39.072 0 0 39.07z" class="s4"/><path id="path13368" d="m417.429 625.353 39.07 0 0-39.07-39.07 0 0 39.07z" class="s3"/><path id="path13370" d="m458.5 625.353 39.072 0 0-39.07-39.072 0 0 39.07zM171 666.423l39.072 0 0-39.07-39.072 0 0 39.07M171 666.423l39.072 0 0-39.07-39.072 0 0 39.07" class="s4"/><path d="m171 666.423 39.072 0 0-39.07-39.072 0 0 39.07z" id="path13372" class="s4"/><path d="m212.072 666.423 39.072 0 0-39.07-39.072 0 0 39.07z" id="path13374" class="s4"/><path d="m253.144 666.423 39.07 0 0-39.07-39.07 0 0 39.07z" id="path13376" class="s4"/><path d="m294.214 666.423 39.072 0 0-39.07-39.072 0 0 39.07z" id="path13378" class="s4"/><path d="m335.287 666.423 39.07 0 0-39.07-39.07 0 0 39.07z" id="path13380" class="s4"/><path d="m376.357 666.423 39.072 0 0-39.07-39.072 0 0 39.07z" id="path13382" class="s4"/><path d="m417.429 666.423 39.07 0 0-39.07-39.07 0 0 39.07z" id="path13384" class="s4"/><path d="m458.5 666.423 39.072 0 0-39.07-39.072 0 0 39.07z" id="path13386" class="s4"/><path d="m171 543.212 39.072 0 0-39.07-39.072 0 0 39.07z" id="path13388" class="s4"/><path d="m212.072 543.212 39.072 0 0-39.07-39.072 0 0 39.07z" id="path13390" class="s4"/><path d="m253.144 543.212 39.07 0 0-39.07-39.07 0 0 39.07z" id="path13392" class="s4"/><path d="m294.214 543.212 39.072 0 0-39.07-39.072 0 0 39.07zM335.287 543.212l39.07 0 0-39.07-39.07 0 0 39.07M335.287 543.212l39.07 0 0-39.07-39.07 0 0 39.07" id="path13394" class="s3"/><path d="m335.287 543.212 39.07 0 0-39.07-39.07 0 0 39.07z" id="path13396" class="s3"/><path d="m376.357 543.212 39.072 0 0-39.07-39.072 0 0 39.07zM417.429 543.212l39.07 0 0-39.07-39.07 0 0 39.07M417.429 543.212l39.07 0 0-39.07-39.07 0 0 39.07" id="path13398" class="s4"/><path d="m417.429 543.212 39.07 0 0-39.07-39.07 0 0 39.07z" id="path13400" class="s4"/><path d="m458.5 543.212 39.072 0 0-39.07-39.072 0 0 39.07z" id="path13402" class="s4"/><path id="path13404" d="m171 584.282 39.072 0 0-39.07-39.072 0 0 39.07z" class="s4"/><path id="path13406" d="m212.072 584.282 39.072 0 0-39.07-39.072 0 0 39.07z" class="s4"/><path id="path13408" d="m253.144 584.282 39.07 0 0-39.07-39.07 0 0 39.07z" class="s4"/><path id="path13410" d="m294.214 584.282 39.072 0 0-39.07-39.072 0 0 39.07z" class="s4"/><path id="path13412" d="m335.287 584.282 39.07 0 0-39.07-39.07 0 0 39.07z" class="s4"/><path id="path13414" d="m376.357 584.282 39.072 0 0-39.07-39.072 0 0 39.07z" class="s4"/><path id="path13416" d="m417.429 584.282 39.07 0 0-39.07-39.07 0 0 39.07z" class="s4"/><path id="path13418" d="m458.5 584.282 39.072 0 0-39.07-39.072 0 0 39.07z" class="s4"/><path d="m171 461.071 39.072 0 0-39.07-39.072 0 0 39.07z" id="path13420" class="s4"/><path d="m212.072 461.071 39.072 0 0-39.07-39.072 0 0 39.07z" id="path13422" class="s4"/><path d="m253.144 461.071 39.07 0 0-39.07-39.07 0 0 39.07z" id="path13424" class="s3"/><path d="m294.214 461.071 39.072 0 0-39.07-39.072 0 0 39.07zM335.287 461.071l39.07 0 0-39.07-39.07 0 0 39.07M335.287 461.071l39.07 0 0-39.07-39.07 0 0 39.07" id="path13426" class="s4"/><path d="m335.287 461.071 39.07 0 0-39.07-39.07 0 0 39.07z" id="path13428" class="s4"/><path d="m376.357 461.071 39.072 0 0-39.07-39.072 0 0 39.07z" id="path13430" class="s3"/><path d="m417.429 461.071 39.07 0 0-39.07-39.07 0 0 39.07zM458.5 461.071l39.072 0 0-39.07-39.072 0 0 39.07M458.5 461.071l39.072 0 0-39.07-39.072 0 0 39.07" id="path13432" class="s4"/><path d="m458.5 461.071 39.072 0 0-39.07-39.072 0 0 39.07z" id="path13434" class="s4"/><path id="path13436" d="m171 502.142 39.072 0 0-39.07-39.072 0 0 39.07z" class="s4"/><path id="path13438" d="m212.072 502.142 39.072 0 0-39.07-39.072 0 0 39.07z" class="s4"/><path id="path13440" d="m253.144 502.142 39.07 0 0-39.07-39.07 0 0 39.07z" class="s4"/><path id="path13442" d="m294.214 502.142 39.072 0 0-39.07-39.072 0 0 39.07z" class="s4"/><path id="path13444" d="m335.287 502.142 39.07 0 0-39.07-39.07 0 0 39.07z" class="s4"/><path id="path13446" d="m376.357 502.142 39.072 0 0-39.07-39.072 0 0 39.07z" class="s4"/><path id="path13448" d="m417.429 502.142 39.07 0 0-39.07-39.07 0 0 39.07z" class="s4"/><path id="path13450" d="m458.5 502.142 39.072 0 0-39.07-39.072 0 0 39.07z" class="s4"/><path id="path13452" d="m171 378.931 39.072 0 0-39.07-39.072 0 0 39.07z" class="s3"/><path id="path13454" d="m212.072 378.931 39.072 0 0-39.07-39.072 0 0 39.07zM253.144 378.931l39.07 0 0-39.07-39.07 0 0 39.07M253.144 378.931l39.07 0 0-39.07-39.07 0 0 39.07" class="s4"/><path id="path13456" d="m253.144 378.931 39.07 0 0-39.07-39.07 0 0 39.07z" class="s4"/><path id="path13458" d="m294.214 378.931 39.072 0 0-39.07-39.072 0 0 39.07z" class="s4"/><path id="path13460" d="m335.287 378.931 39.07 0 0-39.07-39.07 0 0 39.07z" class="s4"/><path id="path13462" d="m376.357 378.931 39.072 0 0-39.07-39.072 0 0 39.07z" class="s4"/><path id="path13464" d="m417.429 378.931 39.07 0 0-39.07-39.07 0 0 39.07z" class="s4"/><path id="path13466" d="m458.5 378.931 39.072 0 0-39.07-39.072 0 0 39.07z" class="s3"/><path d="m171 420.001 39.072 0 0-39.07-39.072 0 0 39.07zM212.072 420.001l39.072 0 0-39.07-39.072 0 0 39.07M212.072 420.001l39.072 0 0-39.07-39.072 0 0 39.07" id="path13468" class="s4"/><path d="m212.072 420.001 39.072 0 0-39.07-39.072 0 0 39.07z" id="path13470" class="s4"/><path d="m253.144 420.001 39.07 0 0-39.07-39.07 0 0 39.07z" id="path13472" class="s4"/><path d="m294.214 420.001 39.072 0 0-39.07-39.072 0 0 39.07z" id="path13474" class="s4"/><path d="m335.287 420.001 39.07 0 0-39.07-39.07 0 0 39.07z" id="path13476" class="s4"/><path d="m376.357 420.001 39.072 0 0-39.07-39.072 0 0 39.07z" id="path13478" class="s4"/><path d="m417.429 420.001 39.07 0 0-39.07-39.07 0 0 39.07z" id="path13480" class="s4"/><path d="m458.5 420.001 39.072 0 0-39.07-39.072 0 0 39.07z" id="path13482" class="s4"/></g><g id="g17450"><path id="path13484" d="m478.036 269.265 0 62.849" style="fill:none;marker-end:url(#marker14070);marker-start:url(#marker14066);stroke-width:3.004;stroke:#000"/><path d="m190.536 269.265 0 62.849" id="path13486" style="fill:none;marker-end:url(#marker14030);marker-start:url(#marker14026);stroke-width:3.004;stroke:#000"/><path id="path13488" d="m395.893 269.265 0 145.457" style="fill:none;marker-end:url(#marker14022);marker-start:url(#marker14014);stroke-width:3.002;stroke:#000"/><path id="path13490" d="m272.679 269.265 0 145.457" style="fill:none;marker-end:url(#marker14046);marker-start:url(#marker14042);stroke-width:3.002;stroke:#000"/><path id="path13492" d="m436.964 269.265 0 309.744" style="fill:none;marker-end:url(#marker14062);marker-start:url(#marker14058);stroke-width:3.001;stroke:#000"/><path id="path13494" d="m231.608 269.265 0 309.744" style="fill:none;marker-end:url(#marker14038);marker-start:url(#marker14034);stroke-width:3.001;stroke:#000"/><path id="path13496" d="m313.751 269.265 0 227.612" style="fill:none;marker-end:url(#marker14054);marker-start:url(#marker14050);stroke-width:3;stroke:#000"/><path id="path13498" d="m354.822 269.265 0 227.612" style="fill:none;marker-end:url(#marker13602);marker-start:url(#marker13598);stroke-width:3;stroke:#000"/></g></g></g></svg>
