<?xml version="1.0" encoding="UTF-8" standalone="no"?>
<svg xmlns:svg="http://www.w3.org/2000/svg" xmlns="http://www.w3.org/2000/svg" width="115.349" height="140.782" viewBox="0 0 408.717 498.833" id="svg15444" version="1.1"><style>.s0{overflow:visible;}.s1{fill:#000;stroke-width:1;stroke:#000;}.s2{baseline-shift:baseline;block-progression:tb;color-interpolation-filters:linearRGB;color-interpolation:sRGB;color-rendering:auto;direction:ltr;fill:#000;font-family:sans-serif;font-size:medium;image-rendering:auto;isolation:auto;letter-spacing:normal;line-height:normal;mix-blend-mode:normal;overflow:visible;shape-rendering:auto;solid-color:#000000;solid-opacity:1;text-align:start;text-anchor:start;text-decoration-color:#000000;text-decoration-line:none;text-decoration-style:solid;text-decoration:none;text-indent:0;text-rendering:auto;text-transform:none;white-space:normal;word-spacing:normal;writing-mode:lr-tb;}.s3{baseline-shift:baseline;block-progression:tb;color-interpolation-filters:linearRGB;color-interpolation:sRGB;color-rendering:auto;direction:ltr;fill:#70c048;font-family:sans-serif;font-size:medium;image-rendering:auto;isolation:auto;letter-spacing:normal;line-height:normal;mix-blend-mode:normal;overflow:visible;shape-rendering:auto;solid-color:#000000;solid-opacity:1;text-align:start;text-anchor:start;text-decoration-color:#000000;text-decoration-line:none;text-decoration-style:solid;text-decoration:none;text-indent:0;text-rendering:auto;text-transform:none;white-space:normal;word-spacing:normal;writing-mode:lr-tb;}.s4{baseline-shift:baseline;block-progression:tb;color-interpolation-filters:linearRGB;color-interpolation:sRGB;color-rendering:auto;direction:ltr;fill:#54b0f8;font-family:sans-serif;font-size:medium;image-rendering:auto;isolation:auto;letter-spacing:normal;line-height:normal;mix-blend-mode:normal;overflow:visible;shape-rendering:auto;solid-color:#000000;solid-opacity:1;text-align:start;text-anchor:start;text-decoration-color:#000000;text-decoration-line:none;text-decoration-style:solid;text-decoration:none;text-indent:0;text-rendering:auto;text-transform:none;white-space:normal;word-spacing:normal;writing-mode:lr-tb;}</style><defs id="defs15446"><marker id="marker14066" refX="0" refY="0" orient="auto" overflow="visible"><path transform="matrix(0.2,0,0,0.2,1.48,0.2)" d="m-2.5-1c0 2.76-2.24 5-5 5-2.76 0-5-2.24-5-5 0-2.76 2.24-5 5-5 2.76 0 5 2.24 5 5z" id="path14068" class="s1"/></marker><marker id="marker14070" refX="0" refY="0" orient="auto" overflow="visible"><path transform="matrix(-0.2,0,0,-0.2,-1.2,0)" d="M0 0 5-5-12.5 0 5 5 0 0Z" id="path14072" class="s1"/></marker><marker orient="auto" refY="0" refX="0" id="marker14026" overflow="visible"><path id="path14028" d="m-2.5-1c0 2.76-2.24 5-5 5-2.76 0-5-2.24-5-5 0-2.76 2.24-5 5-5 2.76 0 5 2.24 5 5z" transform="matrix(0.2,0,0,0.2,1.48,0.2)" class="s1"/></marker><marker orient="auto" refY="0" refX="0" id="marker14030" overflow="visible"><path id="path14032" d="M0 0 5-5-12.5 0 5 5 0 0Z" transform="matrix(-0.2,0,0,-0.2,-1.2,0)" class="s1"/></marker><marker id="marker14014" refX="0" refY="0" orient="auto" overflow="visible"><path transform="matrix(0.2,0,0,0.2,1.48,0.2)" d="m-2.5-1c0 2.76-2.24 5-5 5-2.76 0-5-2.24-5-5 0-2.76 2.24-5 5-5 2.76 0 5 2.24 5 5z" id="path14016" class="s1"/></marker><marker id="marker14022" refX="0" refY="0" orient="auto" overflow="visible"><path transform="matrix(-0.2,0,0,-0.2,-1.2,0)" d="M0 0 5-5-12.5 0 5 5 0 0Z" id="path14024" class="s1"/></marker><marker id="marker14042" refX="0" refY="0" orient="auto" overflow="visible"><path transform="matrix(0.2,0,0,0.2,1.48,0.2)" d="m-2.5-1c0 2.76-2.24 5-5 5-2.76 0-5-2.24-5-5 0-2.76 2.24-5 5-5 2.76 0 5 2.24 5 5z" id="path14044" class="s1"/></marker><marker id="marker14046" refX="0" refY="0" orient="auto" overflow="visible"><path transform="matrix(-0.2,0,0,-0.2,-1.2,0)" d="M0 0 5-5-12.5 0 5 5 0 0Z" id="path14048" class="s1"/></marker><marker id="marker14058" refX="0" refY="0" orient="auto" overflow="visible"><path transform="matrix(0.2,0,0,0.2,1.48,0.2)" d="m-2.5-1c0 2.76-2.24 5-5 5-2.76 0-5-2.24-5-5 0-2.76 2.24-5 5-5 2.76 0 5 2.24 5 5z" id="path14060" class="s1"/></marker><marker id="marker14062" refX="0" refY="0" orient="auto" overflow="visible"><path transform="matrix(-0.2,0,0,-0.2,-1.2,0)" d="M0 0 5-5-12.5 0 5 5 0 0Z" id="path14064" class="s1"/></marker><marker id="marker14034" refX="0" refY="0" orient="auto" overflow="visible"><path transform="matrix(0.2,0,0,0.2,1.48,0.2)" d="m-2.5-1c0 2.76-2.24 5-5 5-2.76 0-5-2.24-5-5 0-2.76 2.24-5 5-5 2.76 0 5 2.24 5 5z" id="path14036" class="s1"/></marker><marker id="marker14038" refX="0" refY="0" orient="auto" overflow="visible"><path transform="matrix(-0.2,0,0,-0.2,-1.2,0)" d="M0 0 5-5-12.5 0 5 5 0 0Z" id="path14040" class="s1"/></marker><marker id="marker14050" refX="0" refY="0" orient="auto" overflow="visible"><path transform="matrix(0.2,0,0,0.2,1.48,0.2)" d="m-2.5-1c0 2.76-2.24 5-5 5-2.76 0-5-2.24-5-5 0-2.76 2.24-5 5-5 2.76 0 5 2.24 5 5z" id="path14052" class="s1"/></marker><marker id="marker14054" refX="0" refY="0" orient="auto" overflow="visible"><path transform="matrix(-0.2,0,0,-0.2,-1.2,0)" d="M0 0 5-5-12.5 0 5 5 0 0Z" id="path14056" class="s1"/></marker><marker id="marker13598" refX="0" refY="0" orient="auto" overflow="visible"><path transform="matrix(0.2,0,0,0.2,1.48,0.2)" d="m-2.5-1c0 2.76-2.24 5-5 5-2.76 0-5-2.24-5-5 0-2.76 2.24-5 5-5 2.76 0 5 2.24 5 5z" id="path13600" class="s1"/></marker><marker id="marker13602" refX="0" refY="0" orient="auto" overflow="visible"><path transform="matrix(-0.2,0,0,-0.2,-1.2,0)" d="M0 0 5-5-12.5 0 5 5 0 0Z" id="path13604" class="s1"/></marker><marker orient="auto" refY="0" refX="0" id="DotS" overflow="visible"><path id="path12501" d="m-2.5-1c0 2.76-2.24 5-5 5-2.76 0-5-2.24-5-5 0-2.76 2.24-5 5-5 2.76 0 5 2.24 5 5z" transform="matrix(0.2,0,0,0.2,1.48,0.2)" class="s1"/></marker><marker orient="auto" refY="0" refX="0" id="Arrow1Send" overflow="visible"><path id="path12449" d="M0 0 5-5-12.5 0 5 5 0 0Z" transform="matrix(-0.2,0,0,-0.2,-1.2,0)" class="s1"/></marker><marker id="marker12719" refX="0" refY="0" orient="auto" overflow="visible"><path transform="matrix(0.2,0,0,0.2,1.48,0.2)" d="m-2.5-1c0 2.76-2.24 5-5 5-2.76 0-5-2.24-5-5 0-2.76 2.24-5 5-5 2.76 0 5 2.24 5 5z" id="path12721" class="s1"/></marker><marker id="marker12723" refX="0" refY="0" orient="auto" overflow="visible"><path transform="matrix(-0.2,0,0,-0.2,-1.2,0)" d="M0 0 5-5-12.5 0 5 5 0 0Z" id="path12725" class="s1"/></marker><marker orient="auto" refY="0" refX="0" id="marker12729" overflow="visible"><path id="path12731" d="m-2.5-1c0 2.76-2.24 5-5 5-2.76 0-5-2.24-5-5 0-2.76 2.24-5 5-5 2.76 0 5 2.24 5 5z" transform="matrix(0.2,0,0,0.2,1.48,0.2)" class="s1"/></marker><marker orient="auto" refY="0" refX="0" id="marker12733" overflow="visible"><path id="path12735" d="M0 0 5-5-12.5 0 5 5 0 0Z" transform="matrix(-0.2,0,0,-0.2,-1.2,0)" class="s1"/></marker><marker orient="auto" refY="0" refX="0" id="marker12729-9" overflow="visible"><path id="path12731-4" d="m-2.5-1c0 2.76-2.24 5-5 5-2.76 0-5-2.24-5-5 0-2.76 2.24-5 5-5 2.76 0 5 2.24 5 5z" transform="matrix(0.2,0,0,0.2,1.48,0.2)" class="s1"/></marker><marker orient="auto" refY="0" refX="0" id="marker12733-4" overflow="visible"><path id="path12735-5" d="M0 0 5-5-12.5 0 5 5 0 0Z" transform="matrix(-0.2,0,0,-0.2,-1.2,0)" class="s1"/></marker><marker orient="auto" refY="0" refX="0" id="marker12729-5" overflow="visible"><path id="path12731-43" d="m-2.5-1c0 2.76-2.24 5-5 5-2.76 0-5-2.24-5-5 0-2.76 2.24-5 5-5 2.76 0 5 2.24 5 5z" transform="matrix(0.2,0,0,0.2,1.48,0.2)" class="s1"/></marker><marker orient="auto" refY="0" refX="0" id="marker12733-7" overflow="visible"><path id="path12735-7" d="M0 0 5-5-12.5 0 5 5 0 0Z" transform="matrix(-0.2,0,0,-0.2,-1.2,0)" class="s1"/></marker><marker orient="auto" refY="0" refX="0" id="marker12729-5-5" overflow="visible"><path id="path12731-43-3" d="m-2.5-1c0 2.76-2.24 5-5 5-2.76 0-5-2.24-5-5 0-2.76 2.24-5 5-5 2.76 0 5 2.24 5 5z" transform="matrix(0.2,0,0,0.2,1.48,0.2)" class="s1"/></marker><marker orient="auto" refY="0" refX="0" id="marker12733-7-8" overflow="visible"><path id="path12735-7-0" d="M0 0 5-5-12.5 0 5 5 0 0Z" transform="matrix(-0.2,0,0,-0.2,-1.2,0)" class="s1"/></marker><marker orient="auto" refY="0" refX="0" id="marker12729-5-6" overflow="visible"><path id="path12731-43-0" d="m-2.5-1c0 2.76-2.24 5-5 5-2.76 0-5-2.24-5-5 0-2.76 2.24-5 5-5 2.76 0 5 2.24 5 5z" transform="matrix(0.2,0,0,0.2,1.48,0.2)" class="s1"/></marker><marker orient="auto" refY="0" refX="0" id="marker12733-7-80" overflow="visible"><path id="path12735-7-3" d="M0 0 5-5-12.5 0 5 5 0 0Z" transform="matrix(-0.2,0,0,-0.2,-1.2,0)" class="s1"/></marker><marker orient="auto" refY="0" refX="0" id="marker12729-5-6-3" overflow="visible"><path id="path12731-43-0-0" d="m-2.5-1c0 2.76-2.24 5-5 5-2.76 0-5-2.24-5-5 0-2.76 2.24-5 5-5 2.76 0 5 2.24 5 5z" transform="matrix(0.2,0,0,0.2,1.48,0.2)" class="s1"/></marker><marker orient="auto" refY="0" refX="0" id="marker12733-7-80-9" overflow="visible"><path id="path12735-7-3-4" d="M0 0 5-5-12.5 0 5 5 0 0Z" transform="matrix(-0.2,0,0,-0.2,-1.2,0)" class="s1"/></marker></defs><metadata id="metadata15449"/><g id="layer1" transform="translate(-129.92733,-208.65982)"><g id="g13202" transform="translate(-37.761515,-3.9393303)"><g id="g12885"><g id="g12871"><g id="g12858"><g id="g12846"><g id="g12706"><path d="m206.761 629.292 0 1 0 1 0 39.07 0 1 0 1 2 0 39.072 0 2 0 39.072 0 2 0 39.07 0 2 0 39.072 0 2 0 39.07 0 2 0 39.072 0 2 0 39.07 0 2 0 39.072 0 1 0 1 0 0-2 0-40.07 0-1-1 0-327.572 0-2 0z" id="path9516" class="s2"/><path d="m208.761 631.292 39.072 0 0 39.07-39.072 0 0-39.07zM249.833 631.292l39.072 0 0 39.07-39.072 0 0-39.07M249.833 631.292l39.072 0 0 39.07-39.072 0 0-39.07" id="path9518" class="s3"/><path d="m249.833 631.292 39.072 0 0 39.07-39.072 0 0-39.07z" id="path9520" class="s3"/><path d="m290.906 631.292 39.07 0 0 39.07-39.07 0 0-39.07z" id="path9522" class="s3"/><path d="m331.976 631.292 39.072 0 0 39.07-39.072 0 0-39.07z" id="path9524" class="s3"/><path d="m373.048 631.292 39.07 0 0 39.07-39.07 0 0-39.07z" id="path9526" class="s3"/><path d="m414.119 631.292 39.072 0 0 39.07-39.072 0 0-39.07z" id="path9528" class="s3"/><path d="m455.191 631.292 39.07 0 0 39.07-39.07 0 0-39.07z" id="path9530" class="s3"/><path d="m496.261 631.292 39.072 0 0 39.07-39.072 0 0-39.07z" id="path9532" class="s3"/></g></g></g></g></g><g id="g13125"><g id="g13049"><g id="g12974"><g id="g12900"><path id="path9461" d="m206.761 292.74 0 1 0 1 0 39.07 0 1 0 1 2 0 39.072 0 2 0 39.072 0 2 0 39.07 0 2 0 39.072 0 2 0 39.07 0 2 0 39.072 0 2 0 39.07 0 2 0 39.072 0 1 0 1 0 0-2 0-40.07 0-1-1 0-327.572 0-2 0zM206.761 251.669l0 1 0 1 0 39.07 0 1 0 1 2 0 39.072 0 2 0 39.072 0 2 0 39.07 0 2 0 39.072 0 2 0 39.07 0 2 0 39.072 0 2 0 39.07 0 2 0 39.072 0 1 0 1 0 0-2 0-40.07 0-1-1 0-327.572 0-2 0M206.761 251.669l0 1 0 1 0 39.07 0 1 0 1 2 0 39.072 0 2 0 39.072 0 2 0 39.07 0 2 0 39.072 0 2 0 39.07 0 2 0 39.072 0 2 0 39.07 0 2 0 39.072 0 1 0 1 0 0-2 0-40.07 0-1-1 0-327.572 0-2 0" class="s2"/><path d="m206.761 251.669 0 1 0 1 0 39.07 0 1 0 1 2 0 39.072 0 2 0 39.072 0 2 0 39.07 0 2 0 39.072 0 2 0 39.07 0 2 0 39.072 0 2 0 39.07 0 2 0 39.072 0 1 0 1 0 0-2 0-40.07 0-1-1 0-327.572 0-2 0z" id="path9463" class="s2"/><path d="m206.761 374.88 0 1 0 1 0 39.07 0 1 0 1 2 0 39.072 0 2 0 39.072 0 2 0 39.07 0 2 0 39.072 0 2 0 39.07 0 2 0 39.072 0 2 0 39.07 0 2 0 39.072 0 1 0 1 0 0-2 0-40.07 0-1-1 0-327.572 0-2 0z" id="path9560" class="s2"/><path id="path9580" d="m206.761 333.81 0 1 0 1 0 39.07 0 1 0 1 2 0 39.072 0 2 0 39.072 0 2 0 39.07 0 2 0 39.072 0 2 0 39.07 0 2 0 39.072 0 2 0 39.07 0 2 0 39.072 0 1 0 1 0 0-2 0-40.07 0-1-1 0-327.572 0-2 0z" class="s2"/><path d="m206.761 457.021 0 1 0 1 0 39.07 0 1 0 1 2 0 39.072 0 2 0 39.072 0 2 0 39.07 0 2 0 39.072 0 2 0 39.07 0 2 0 39.072 0 2 0 39.07 0 2 0 39.072 0 1 0 1 0 0-2 0-40.07 0-1-1 0-327.572 0-2 0z" id="path9648" class="s2"/><path id="path9668" d="m206.761 415.951 0 1 0 1 0 39.07 0 1 0 1 2 0 39.072 0 2 0 39.072 0 2 0 39.07 0 2 0 39.072 0 2 0 39.07 0 2 0 39.072 0 2 0 39.07 0 2 0 39.072 0 1 0 1 0 0-2 0-40.07 0-1-1 0-327.572 0-2 0z" class="s2"/><path id="path9690" d="m206.761 539.162 0 1 0 1 0 39.07 0 1 0 1 2 0 39.072 0 2 0 39.072 0 2 0 39.07 0 2 0 39.072 0 2 0 39.07 0 2 0 39.072 0 2 0 39.07 0 2 0 39.072 0 1 0 1 0 0-2 0-40.07 0-1-1 0-327.572 0-2 0z" class="s2"/><path d="m206.761 498.091 0 1 0 1 0 39.07 0 1 0 1 2 0 39.072 0 2 0 39.072 0 2 0 39.07 0 2 0 39.072 0 2 0 39.07 0 2 0 39.072 0 2 0 39.07 0 2 0 39.072 0 1 0 1 0 0-2 0-40.07 0-1-1 0-327.572 0-2 0z" id="path9710" class="s2"/><path id="path9459" d="m208.761 294.74 39.072 0 0 39.07-39.072 0 0-39.07z" class="s4"/><path id="path9457" d="m249.833 294.74 39.072 0 0 39.07-39.072 0 0-39.07z" class="s3"/><path id="path9455" d="m290.906 294.74 39.07 0 0 39.07-39.07 0 0-39.07zM331.976 294.74l39.072 0 0 39.07-39.072 0 0-39.07M331.976 294.74l39.072 0 0 39.07-39.072 0 0-39.07" class="s4"/><path id="path9453" d="m331.976 294.74 39.072 0 0 39.07-39.072 0 0-39.07z" class="s4"/><path id="path9451" d="m373.048 294.74 39.07 0 0 39.07-39.07 0 0-39.07z" class="s4"/><path id="path9449" d="m414.119 294.74 39.072 0 0 39.07-39.072 0 0-39.07z" class="s4"/><path id="path9447" d="m455.191 294.74 39.07 0 0 39.07-39.07 0 0-39.07z" class="s3"/><path id="path9259" d="m496.261 294.74 39.072 0 0 39.07-39.072 0 0-39.07zM208.761 253.669l39.072 0 0 39.07-39.072 0 0-39.07M208.761 253.669l39.072 0 0 39.07-39.072 0 0-39.07" class="s4"/><path d="m208.761 253.669 39.072 0 0 39.07-39.072 0 0-39.07z" id="path9465" class="s4"/><path d="m249.833 253.669 39.072 0 0 39.07-39.072 0 0-39.07z" id="path9467" class="s4"/><path d="m290.906 253.669 39.07 0 0 39.07-39.07 0 0-39.07z" id="path9469" class="s4"/><path d="m331.976 253.669 39.072 0 0 39.07-39.072 0 0-39.07z" id="path9471" class="s4"/><path d="m373.048 253.669 39.07 0 0 39.07-39.07 0 0-39.07z" id="path9473" class="s4"/><path d="m414.119 253.669 39.072 0 0 39.07-39.072 0 0-39.07z" id="path9475" class="s4"/><path d="m455.191 253.669 39.07 0 0 39.07-39.07 0 0-39.07z" id="path9477" class="s4"/><path d="m496.261 253.669 39.072 0 0 39.07-39.072 0 0-39.07z" id="path9479" class="s4"/><path d="m208.761 376.88 39.072 0 0 39.07-39.072 0 0-39.07z" id="path9562" class="s4"/><path d="m249.833 376.88 39.072 0 0 39.07-39.072 0 0-39.07z" id="path9564" class="s4"/><path d="m290.906 376.88 39.07 0 0 39.07-39.07 0 0-39.07z" id="path9566" class="s4"/><path d="m331.976 376.88 39.072 0 0 39.07-39.072 0 0-39.07zM373.048 376.88l39.07 0 0 39.07-39.07 0 0-39.07M373.048 376.88l39.07 0 0 39.07-39.07 0 0-39.07" id="path9568" class="s3"/><path d="m373.048 376.88 39.07 0 0 39.07-39.07 0 0-39.07z" id="path9570" class="s3"/><path d="m414.119 376.88 39.072 0 0 39.07-39.072 0 0-39.07zM455.191 376.88l39.07 0 0 39.07-39.07 0 0-39.07M455.191 376.88l39.07 0 0 39.07-39.07 0 0-39.07" id="path9572" class="s4"/><path d="m455.191 376.88 39.07 0 0 39.07-39.07 0 0-39.07z" id="path9574" class="s4"/><path d="m496.261 376.88 39.072 0 0 39.07-39.072 0 0-39.07z" id="path9576" class="s4"/><path id="path9582" d="m208.761 335.81 39.072 0 0 39.07-39.072 0 0-39.07z" class="s4"/><path id="path9584" d="m249.833 335.81 39.072 0 0 39.07-39.072 0 0-39.07z" class="s4"/><path id="path9586" d="m290.906 335.81 39.07 0 0 39.07-39.07 0 0-39.07z" class="s4"/><path id="path9588" d="m331.976 335.81 39.072 0 0 39.07-39.072 0 0-39.07z" class="s4"/><path id="path9590" d="m373.048 335.81 39.07 0 0 39.07-39.07 0 0-39.07z" class="s4"/><path id="path9592" d="m414.119 335.81 39.072 0 0 39.07-39.072 0 0-39.07z" class="s4"/><path id="path9594" d="m455.191 335.81 39.07 0 0 39.07-39.07 0 0-39.07z" class="s4"/><path id="path9596" d="m496.261 335.81 39.072 0 0 39.07-39.072 0 0-39.07z" class="s4"/><path d="m208.761 459.021 39.072 0 0 39.07-39.072 0 0-39.07z" id="path9650" class="s4"/><path d="m249.833 459.021 39.072 0 0 39.07-39.072 0 0-39.07z" id="path9652" class="s4"/><path d="m290.906 459.021 39.07 0 0 39.07-39.07 0 0-39.07z" id="path9654" class="s3"/><path d="m331.976 459.021 39.072 0 0 39.07-39.072 0 0-39.07zM373.048 459.021l39.07 0 0 39.07-39.07 0 0-39.07M373.048 459.021l39.07 0 0 39.07-39.07 0 0-39.07" id="path9656" class="s4"/><path d="m373.048 459.021 39.07 0 0 39.07-39.07 0 0-39.07z" id="path9658" class="s4"/><path d="m414.119 459.021 39.072 0 0 39.07-39.072 0 0-39.07z" id="path9660" class="s3"/><path d="m455.191 459.021 39.07 0 0 39.07-39.07 0 0-39.07zM496.261 459.021l39.072 0 0 39.07-39.072 0 0-39.07M496.261 459.021l39.072 0 0 39.07-39.072 0 0-39.07" id="path9662" class="s4"/><path d="m496.261 459.021 39.072 0 0 39.07-39.072 0 0-39.07z" id="path9664" class="s4"/><path id="path9670" d="m208.761 417.951 39.072 0 0 39.07-39.072 0 0-39.07z" class="s4"/><path id="path9672" d="m249.833 417.951 39.072 0 0 39.07-39.072 0 0-39.07z" class="s4"/><path id="path9674" d="m290.906 417.951 39.07 0 0 39.07-39.07 0 0-39.07z" class="s4"/><path id="path9676" d="m331.976 417.951 39.072 0 0 39.07-39.072 0 0-39.07z" class="s4"/><path id="path9678" d="m373.048 417.951 39.07 0 0 39.07-39.07 0 0-39.07z" class="s4"/><path id="path9680" d="m414.119 417.951 39.072 0 0 39.07-39.072 0 0-39.07z" class="s4"/><path id="path9682" d="m455.191 417.951 39.07 0 0 39.07-39.07 0 0-39.07z" class="s4"/><path id="path9684" d="m496.261 417.951 39.072 0 0 39.07-39.072 0 0-39.07z" class="s4"/><path id="path9692" d="m208.761 541.162 39.072 0 0 39.07-39.072 0 0-39.07z" class="s3"/><path id="path9694" d="m249.833 541.162 39.072 0 0 39.07-39.072 0 0-39.07zM290.906 541.162l39.07 0 0 39.07-39.07 0 0-39.07M290.906 541.162l39.07 0 0 39.07-39.07 0 0-39.07" class="s4"/><path id="path9696" d="m290.906 541.162 39.07 0 0 39.07-39.07 0 0-39.07z" class="s4"/><path id="path9698" d="m331.976 541.162 39.072 0 0 39.07-39.072 0 0-39.07z" class="s4"/><path id="path9700" d="m373.048 541.162 39.07 0 0 39.07-39.07 0 0-39.07z" class="s4"/><path id="path9702" d="m414.119 541.162 39.072 0 0 39.07-39.072 0 0-39.07z" class="s4"/><path id="path9704" d="m455.191 541.162 39.07 0 0 39.07-39.07 0 0-39.07z" class="s4"/><path id="path9706" d="m496.261 541.162 39.072 0 0 39.07-39.072 0 0-39.07z" class="s3"/><path d="m208.761 500.091 39.072 0 0 39.07-39.072 0 0-39.07zM249.833 500.091l39.072 0 0 39.07-39.072 0 0-39.07M249.833 500.091l39.072 0 0 39.07-39.072 0 0-39.07" id="path9712" class="s4"/><path d="m249.833 500.091 39.072 0 0 39.07-39.072 0 0-39.07z" id="path9714" class="s4"/><path d="m290.906 500.091 39.07 0 0 39.07-39.07 0 0-39.07z" id="path9716" class="s4"/><path d="m331.976 500.091 39.072 0 0 39.07-39.072 0 0-39.07z" id="path9718" class="s4"/><path d="m373.048 500.091 39.07 0 0 39.07-39.07 0 0-39.07z" id="path9720" class="s4"/><path d="m414.119 500.091 39.072 0 0 39.07-39.072 0 0-39.07z" id="path9722" class="s4"/><path d="m455.191 500.091 39.07 0 0 39.07-39.07 0 0-39.07z" id="path9724" class="s4"/><path d="m496.261 500.091 39.072 0 0 39.07-39.072 0 0-39.07z" id="path9726" class="s4"/></g></g></g></g><path id="path12347" d="m228.297 561.164 0 62.849" style="fill:none;marker-end:url(#Arrow1Send);marker-start:url(#DotS);stroke-width:3.004;stroke:#000"/><path d="m515.797 560.697 0 62.849" id="path12717" style="fill:none;marker-end:url(#marker12723);marker-start:url(#marker12719);stroke-width:3.004;stroke:#000"/><path id="path12727" d="m310.441 478.562 0 145.457" style="fill:none;marker-end:url(#marker12733);marker-start:url(#marker12729);stroke-width:3.002;stroke:#000"/><path id="path12727-6" d="m433.655 478.562 0 145.457" style="fill:none;marker-end:url(#marker12733-4);marker-start:url(#marker12729-9);stroke-width:3.002;stroke:#000"/><path id="path12727-7" d="m269.37 314.278 0 309.744" style="fill:none;marker-end:url(#marker12733-7);marker-start:url(#marker12729-5);stroke-width:3.001;stroke:#000"/><path id="path12727-7-1" d="m474.726 314.275 0 309.744" style="fill:none;marker-end:url(#marker12733-7-8);marker-start:url(#marker12729-5-5);stroke-width:3.001;stroke:#000"/><path id="path12727-7-2" d="m392.583 396.416 0 227.612" style="fill:none;marker-end:url(#marker12733-7-80);marker-start:url(#marker12729-5-6);stroke-width:3;stroke:#000"/><path id="path12727-7-2-1" d="m351.512 396.416 0 227.612" style="fill:none;marker-end:url(#marker12733-7-80-9);marker-start:url(#marker12729-5-6-3);stroke-width:3;stroke:#000"/></g></g></svg>
